<svg width="900" height="49" viewBox="0 0 900 49" fill="none" xmlns="http://www.w3.org/2000/svg">
<path d="M0.784 0.703999H17.72V6.272H6.7V17.64H9.02C11.0693 17.64 12.7707 17.9107 14.124 18.452C15.516 18.9933 16.6373 19.7667 17.488 20.772C18.3773 21.8547 18.938 23.034 19.17 24.31C19.402 25.5473 19.5373 26.92 19.576 28.428V30.748C19.576 34.3827 18.6867 37.1667 16.908 39.1C15.168 41.0333 12.3647 42 8.498 42H0.784V0.703999ZM6.7 22.86V36.084H8.904C10.1027 36.084 11.0307 35.91 11.688 35.562C12.384 35.214 12.906 34.7307 13.254 34.112C13.602 33.4933 13.8147 32.7587 13.892 31.908C13.9693 31.0573 14.008 30.1293 14.008 29.124C14.008 28.08 13.9307 27.1713 13.776 26.398C13.66 25.586 13.4087 24.9287 13.022 24.426C12.6353 23.9233 12.1327 23.5367 11.514 23.266C10.8953 22.9953 10.0447 22.86 8.962 22.86H6.7ZM36.1812 27.558L33.2812 12.594H33.1652L30.2652 27.558H36.1812ZM21.5652 42L30.7872 0.703999H35.7172L44.9392 42H39.0232L37.2832 33.126H29.2212L27.4812 42H21.5652ZM50.8548 42V48.38H45.7508V36.78H48.7668C49.1148 36.0453 49.4434 35.214 49.7528 34.286C50.0621 33.3193 50.3328 32.314 50.5648 31.27C50.7968 30.226 51.0094 29.1627 51.2028 28.08C51.3961 26.9587 51.5508 25.876 51.6668 24.832C51.7441 24.02 51.8021 23.1113 51.8408 22.106C51.9181 21.1007 51.9761 20.076 52.0148 19.032C52.0534 17.9493 52.0728 16.886 52.0728 15.842C52.1114 14.7593 52.1308 13.7347 52.1308 12.768V0.703999H69.1248V36.78H72.4888V48.38H67.3848V42H50.8548ZM57.6988 5.924V12.71C57.6988 13.2513 57.6794 14.044 57.6408 15.088C57.6021 16.0933 57.5441 17.1953 57.4668 18.394C57.3894 19.5927 57.3121 20.8107 57.2348 22.048C57.1574 23.2467 57.0608 24.31 56.9448 25.238C56.8674 26.0113 56.7321 26.9007 56.5388 27.906C56.3841 28.8727 56.1908 29.878 55.9588 30.922C55.7268 31.966 55.4754 33.01 55.2048 34.054C54.9341 35.0593 54.6248 35.968 54.2768 36.78H63.2088V5.924H57.6988ZM75.145 46.292V36.084H81.061V42L75.145 46.292ZM97.0164 42V0.703999H102.932V18.394H110.24V0.703999H116.156V42H110.24V23.614H102.932V42H97.0164ZM121.712 42V0.703999H139.344V6.272H127.628V18.394H137.836V23.962H127.628V36.084H139.344V42H121.712ZM164.148 6.272C162.06 6.272 160.688 6.83266 160.03 7.954C159.412 9.03667 159.102 10.622 159.102 12.71C159.102 13.754 159.16 14.682 159.276 15.494C159.392 16.2673 159.605 16.9247 159.914 17.466C160.262 18.0073 160.746 18.4327 161.364 18.742C161.983 19.0127 162.814 19.148 163.858 19.148H166.7V6.272H164.148ZM166.7 42V24.368H163.974L158.812 42H152.78L158.406 23.614C157.478 23.266 156.666 22.744 155.97 22.048C155.274 21.352 154.714 20.5593 154.288 19.67C153.863 18.7807 153.573 17.7367 153.418 16.538C153.264 15.3393 153.186 14.102 153.186 12.826C153.186 4.74467 156.666 0.703999 163.626 0.703999H172.616V42H166.7ZM178.182 42V0.703999H186.824C188.719 0.703999 190.324 0.993999 191.638 1.574C192.992 2.154 194.094 2.92733 194.944 3.894C195.795 4.86067 196.394 5.982 196.742 7.258C197.129 8.49533 197.322 9.79067 197.322 11.144V12.652C197.322 13.7733 197.226 14.7207 197.032 15.494C196.878 16.2673 196.626 16.944 196.278 17.524C195.621 18.6067 194.616 19.5347 193.262 20.308C194.654 20.9653 195.679 21.932 196.336 23.208C196.994 24.484 197.322 26.224 197.322 28.428V30.748C197.322 34.3827 196.433 37.1667 194.654 39.1C192.914 41.0333 190.111 42 186.244 42H178.182ZM184.098 22.86V36.084H186.65C187.849 36.084 188.777 35.91 189.434 35.562C190.13 35.214 190.652 34.7307 191 34.112C191.348 33.4933 191.561 32.7587 191.638 31.908C191.716 31.0573 191.754 30.1293 191.754 29.124C191.754 28.08 191.696 27.1713 191.58 26.398C191.464 25.6247 191.232 24.9673 190.884 24.426C190.498 23.8847 189.976 23.498 189.318 23.266C188.661 22.9953 187.791 22.86 186.708 22.86H184.098ZM184.098 6.272V17.64H186.766C188.738 17.64 190.053 17.1567 190.71 16.19C191.406 15.1847 191.754 13.7347 191.754 11.84C191.754 9.984 191.368 8.592 190.594 7.664C189.86 6.736 188.506 6.272 186.534 6.272H184.098ZM211.069 5.924V17.93C211.069 18.5487 211.05 19.612 211.011 21.12C210.973 22.5893 210.876 24.2133 210.721 25.992C210.567 27.7707 210.335 29.53 210.025 31.27C209.716 33.01 209.291 34.46 208.749 35.62C207.821 37.592 206.642 39.158 205.211 40.318C203.781 41.4393 202.041 42 199.991 42H199.643V36.084C200.803 36.0067 201.712 35.6587 202.369 35.04C203.027 34.4213 203.568 33.648 203.993 32.72C204.341 31.908 204.612 30.922 204.805 29.762C205.037 28.602 205.211 27.3647 205.327 26.05C205.443 24.7353 205.521 23.382 205.559 21.99C205.598 20.598 205.617 19.264 205.617 17.988V0.703999H222.785V42H216.869V5.924H211.069ZM238.574 6.272C236.486 6.272 235.113 6.83266 234.456 7.954C233.837 9.03667 233.528 10.622 233.528 12.71C233.528 13.754 233.586 14.682 233.702 15.494C233.818 16.2673 234.031 16.9247 234.34 17.466C234.688 18.0073 235.171 18.4327 235.79 18.742C236.409 19.0127 237.24 19.148 238.284 19.148H241.126V6.272H238.574ZM241.126 42V24.368H238.4L233.238 42H227.206L232.832 23.614C231.904 23.266 231.092 22.744 230.396 22.048C229.7 21.352 229.139 20.5593 228.714 19.67C228.289 18.7807 227.999 17.7367 227.844 16.538C227.689 15.3393 227.612 14.102 227.612 12.826C227.612 4.74467 231.092 0.703999 238.052 0.703999H247.042V42H241.126ZM252.608 42V0.703999H270.24V6.272H258.524V18.394H268.732V23.962H258.524V36.084H270.24V42H252.608ZM278.527 42V6.272H271.683V0.703999H291.287V6.272H284.443V42H278.527ZM312.408 30.226V32.778C312.408 34.054 312.157 35.272 311.654 36.432C311.19 37.5533 310.533 38.5587 309.682 39.448C308.831 40.3373 307.826 41.0527 306.666 41.594C305.545 42.0967 304.327 42.348 303.012 42.348C301.891 42.348 300.75 42.1933 299.59 41.884C298.43 41.5747 297.386 41.0333 296.458 40.26C295.53 39.4867 294.757 38.5007 294.138 37.302C293.558 36.0647 293.268 34.4987 293.268 32.604V9.868C293.268 8.51466 293.5 7.258 293.964 6.098C294.428 4.938 295.085 3.93266 295.936 3.082C296.787 2.23133 297.792 1.574 298.952 1.11C300.151 0.60733 301.465 0.355997 302.896 0.355997C305.68 0.355997 307.942 1.26466 309.682 3.082C310.533 3.97133 311.19 5.03467 311.654 6.272C312.157 7.47066 312.408 8.78533 312.408 10.216V12.536H306.492V10.564C306.492 9.404 306.163 8.39866 305.506 7.548C304.849 6.69733 303.959 6.272 302.838 6.272C301.369 6.272 300.383 6.736 299.88 7.664C299.416 8.55333 299.184 9.694 299.184 11.086V32.198C299.184 33.3967 299.435 34.402 299.938 35.214C300.479 36.026 301.427 36.432 302.78 36.432C303.167 36.432 303.573 36.374 303.998 36.258C304.462 36.1033 304.887 35.8713 305.274 35.562C305.622 35.2527 305.912 34.8273 306.144 34.286C306.376 33.7447 306.492 33.068 306.492 32.256V30.226H312.408ZM326.877 6.272C324.789 6.272 323.416 6.83266 322.759 7.954C322.14 9.03667 321.831 10.622 321.831 12.71C321.831 13.754 321.889 14.682 322.005 15.494C322.121 16.2673 322.333 16.9247 322.643 17.466C322.991 18.0073 323.474 18.4327 324.093 18.742C324.711 19.0127 325.543 19.148 326.587 19.148H329.429V6.272H326.877ZM329.429 42V24.368H326.703L321.541 42H315.509L321.135 23.614C320.207 23.266 319.395 22.744 318.699 22.048C318.003 21.352 317.442 20.5593 317.017 19.67C316.591 18.7807 316.301 17.7367 316.147 16.538C315.992 15.3393 315.915 14.102 315.915 12.826C315.915 4.74467 319.395 0.703999 326.355 0.703999H335.345V42H329.429ZM360.431 5.924V17.93C360.431 18.5487 360.411 19.612 360.373 21.12C360.334 22.5893 360.237 24.2133 360.083 25.992C359.928 27.7707 359.696 29.53 359.387 31.27C359.077 33.01 358.652 34.46 358.111 35.62C357.183 37.592 356.003 39.158 354.573 40.318C353.142 41.4393 351.402 42 349.353 42H349.005V36.084C350.165 36.0067 351.073 35.6587 351.731 35.04C352.388 34.4213 352.929 33.648 353.355 32.72C353.703 31.908 353.973 30.922 354.167 29.762C354.399 28.602 354.573 27.3647 354.689 26.05C354.805 24.7353 354.882 23.382 354.921 21.99C354.959 20.598 354.979 19.264 354.979 17.988V0.703999H372.147V42H366.231V5.924H360.431ZM377.727 42V0.703999H395.359V6.272H383.643V18.394H393.851V23.962H383.643V36.084H395.359V42H377.727ZM419.842 6.272C419.301 6.272 418.856 6.34933 418.508 6.504C418.16 6.62 417.831 6.852 417.522 7.2C417.213 7.548 417 7.97333 416.884 8.476C416.768 8.97867 416.671 9.53933 416.594 10.158L416.072 14.972C416.033 15.4747 415.975 15.9387 415.898 16.364C415.821 16.7507 415.743 17.1567 415.666 17.582C415.589 17.9687 415.473 18.3167 415.318 18.626C415.086 19.1673 414.796 19.6507 414.448 20.076C414.139 20.4627 413.829 20.772 413.52 21.004L419.668 42H413.636L408.416 23.614H405.11V42H399.194V0.703999H405.11V18.394H407.082C407.778 18.394 408.339 18.2973 408.764 18.104C409.189 17.9107 409.537 17.64 409.808 17.292C410.079 16.944 410.272 16.5573 410.388 16.132C410.504 15.668 410.601 15.1653 410.678 14.624L411.258 9.694C411.297 9.53933 411.335 9.23 411.374 8.766C411.451 8.26333 411.567 7.70266 411.722 7.084C411.877 6.46533 412.089 5.82733 412.36 5.17C412.631 4.51267 412.979 3.894 413.404 3.314C414.139 2.386 415.028 1.72866 416.072 1.342C417.155 0.916666 418.411 0.703999 419.842 0.703999V6.272ZM435.158 27.558L432.258 12.594H432.142L429.242 27.558H435.158ZM420.542 42L429.764 0.703999H434.694L443.916 42H438L436.26 33.126H428.198L426.458 42H420.542ZM446.829 42V0.703999H455.703C457.327 0.703999 458.758 0.916666 459.995 1.342C461.232 1.76733 462.354 2.52133 463.359 3.604C464.364 4.68667 465.06 5.96267 465.447 7.432C465.834 8.86267 466.027 10.8153 466.027 13.29C466.027 15.146 465.911 16.712 465.679 17.988C465.486 19.264 465.041 20.4627 464.345 21.584C463.533 22.9373 462.45 24.0007 461.097 24.774C459.744 25.5087 457.965 25.876 455.761 25.876H452.745V42H446.829ZM452.745 6.272V20.308H455.587C456.786 20.308 457.714 20.134 458.371 19.786C459.028 19.438 459.512 18.9547 459.821 18.336C460.13 17.756 460.304 17.0407 460.343 16.19C460.42 15.3393 460.459 14.392 460.459 13.348C460.459 12.3813 460.44 11.4727 460.401 10.622C460.362 9.73267 460.188 8.95933 459.879 8.302C459.57 7.64466 459.106 7.142 458.487 6.794C457.868 6.446 456.979 6.272 455.819 6.272H452.745ZM489.24 30.226V32.778C489.24 34.054 488.989 35.272 488.486 36.432C488.022 37.5533 487.365 38.5587 486.514 39.448C485.663 40.3373 484.658 41.0527 483.498 41.594C482.377 42.0967 481.159 42.348 479.844 42.348C478.723 42.348 477.582 42.1933 476.422 41.884C475.262 41.5747 474.218 41.0333 473.29 40.26C472.362 39.4867 471.589 38.5007 470.97 37.302C470.39 36.0647 470.1 34.4987 470.1 32.604V9.868C470.1 8.51466 470.332 7.258 470.796 6.098C471.26 4.938 471.917 3.93266 472.768 3.082C473.619 2.23133 474.624 1.574 475.784 1.11C476.983 0.60733 478.297 0.355997 479.728 0.355997C482.512 0.355997 484.774 1.26466 486.514 3.082C487.365 3.97133 488.022 5.03467 488.486 6.272C488.989 7.47066 489.24 8.78533 489.24 10.216V12.536H483.324V10.564C483.324 9.404 482.995 8.39866 482.338 7.548C481.681 6.69733 480.791 6.272 479.67 6.272C478.201 6.272 477.215 6.736 476.712 7.664C476.248 8.55333 476.016 9.694 476.016 11.086V32.198C476.016 33.3967 476.267 34.402 476.77 35.214C477.311 36.026 478.259 36.432 479.612 36.432C479.999 36.432 480.405 36.374 480.83 36.258C481.294 36.1033 481.719 35.8713 482.106 35.562C482.454 35.2527 482.744 34.8273 482.976 34.286C483.208 33.7447 483.324 33.068 483.324 32.256V30.226H489.24ZM497.387 42V6.272H490.543V0.703999H510.147V6.272H503.303V42H497.387ZM512.759 42V0.703999H521.401C523.295 0.703999 524.9 0.993999 526.215 1.574C527.568 2.154 528.67 2.92733 529.521 3.894C530.371 4.86067 530.971 5.982 531.319 7.258C531.705 8.49533 531.899 9.79067 531.899 11.144V12.652C531.899 13.7733 531.802 14.7207 531.609 15.494C531.454 16.2673 531.203 16.944 530.855 17.524C530.197 18.6067 529.192 19.5347 527.839 20.308C529.231 20.9653 530.255 21.932 530.913 23.208C531.57 24.484 531.899 26.224 531.899 28.428V30.748C531.899 34.3827 531.009 37.1667 529.231 39.1C527.491 41.0333 524.687 42 520.821 42H512.759ZM518.675 22.86V36.084H521.227C522.425 36.084 523.353 35.91 524.011 35.562C524.707 35.214 525.229 34.7307 525.577 34.112C525.925 33.4933 526.137 32.7587 526.215 31.908C526.292 31.0573 526.331 30.1293 526.331 29.124C526.331 28.08 526.273 27.1713 526.157 26.398C526.041 25.6247 525.809 24.9673 525.461 24.426C525.074 23.8847 524.552 23.498 523.895 23.266C523.237 22.9953 522.367 22.86 521.285 22.86H518.675ZM518.675 6.272V17.64H521.343C523.315 17.64 524.629 17.1567 525.287 16.19C525.983 15.1847 526.331 13.7347 526.331 11.84C526.331 9.984 525.944 8.592 525.171 7.664C524.436 6.736 523.083 6.272 521.111 6.272H518.675ZM537.454 42V0.703999H555.086V6.272H543.37V18.394H553.578V23.962H543.37V36.084H555.086V42H537.454ZM558.921 42V0.703999H564.837V18.394H572.145V0.703999H578.061V42H572.145V23.614H564.837V42H558.921ZM583.616 42V0.703999H589.532V18.394H596.84V0.703999H602.756V42H596.84V23.614H589.532V42H583.616ZM608.311 0.703999H614.227V17.64H616.431C618.481 17.64 620.182 17.93 621.535 18.51C622.927 19.0513 624.049 19.8247 624.899 20.83C625.789 21.9127 626.349 23.0727 626.581 24.31C626.813 25.5473 626.949 26.92 626.987 28.428V30.748C626.987 34.3827 626.098 37.1667 624.319 39.1C622.579 41.0333 619.776 42 615.909 42H608.311V0.703999ZM614.227 22.86V36.084H616.315C617.514 36.084 618.442 35.91 619.099 35.562C619.795 35.214 620.317 34.7307 620.665 34.112C621.013 33.4933 621.226 32.7587 621.303 31.908C621.381 31.0573 621.419 30.1293 621.419 29.124C621.419 28.08 621.361 27.1907 621.245 26.456C621.129 25.7213 620.897 25.0833 620.549 24.542C620.163 24.0007 619.641 23.5947 618.983 23.324C618.326 23.0147 617.456 22.86 616.373 22.86H614.227ZM630.003 42V0.703999H635.919V42H630.003ZM641.503 42V0.703999H647.187L654.785 22.57H654.901L662.441 0.703999H668.183V42H662.267V16.886H662.151L656.293 34.634H653.335L647.535 16.886H647.419V42H641.503ZM703.285 30.226V32.778C703.285 34.054 703.034 35.272 702.531 36.432C702.067 37.5533 701.41 38.5587 700.559 39.448C699.708 40.3373 698.703 41.0527 697.543 41.594C696.422 42.0967 695.204 42.348 693.889 42.348C692.768 42.348 691.627 42.1933 690.467 41.884C689.307 41.5747 688.263 41.0333 687.335 40.26C686.407 39.4867 685.634 38.5007 685.015 37.302C684.435 36.0647 684.145 34.4987 684.145 32.604V9.868C684.145 8.51466 684.377 7.258 684.841 6.098C685.305 4.938 685.962 3.93266 686.813 3.082C687.664 2.23133 688.669 1.574 689.829 1.11C691.028 0.60733 692.342 0.355997 693.773 0.355997C696.557 0.355997 698.819 1.26466 700.559 3.082C701.41 3.97133 702.067 5.03467 702.531 6.272C703.034 7.47066 703.285 8.78533 703.285 10.216V12.536H697.369V10.564C697.369 9.404 697.04 8.39866 696.383 7.548C695.726 6.69733 694.836 6.272 693.715 6.272C692.246 6.272 691.26 6.736 690.757 7.664C690.293 8.55333 690.061 9.694 690.061 11.086V32.198C690.061 33.3967 690.312 34.402 690.815 35.214C691.356 36.026 692.304 36.432 693.657 36.432C694.044 36.432 694.45 36.374 694.875 36.258C695.339 36.1033 695.764 35.8713 696.151 35.562C696.499 35.2527 696.789 34.8273 697.021 34.286C697.253 33.7447 697.369 33.068 697.369 32.256V30.226H703.285ZM708.112 42V0.703999H716.986C718.61 0.703999 720.041 0.916666 721.278 1.342C722.515 1.76733 723.637 2.52133 724.642 3.604C725.647 4.68667 726.343 5.96267 726.73 7.432C727.117 8.86267 727.31 10.8153 727.31 13.29C727.31 15.146 727.194 16.712 726.962 17.988C726.769 19.264 726.324 20.4627 725.628 21.584C724.816 22.9373 723.733 24.0007 722.38 24.774C721.027 25.5087 719.248 25.876 717.044 25.876H714.028V42H708.112ZM714.028 6.272V20.308H716.87C718.069 20.308 718.997 20.134 719.654 19.786C720.311 19.438 720.795 18.9547 721.104 18.336C721.413 17.756 721.587 17.0407 721.626 16.19C721.703 15.3393 721.742 14.392 721.742 13.348C721.742 12.3813 721.723 11.4727 721.684 10.622C721.645 9.73267 721.471 8.95933 721.162 8.302C720.853 7.64466 720.389 7.142 719.77 6.794C719.151 6.446 718.262 6.272 717.102 6.272H714.028ZM731.731 42V0.703999H749.363V6.272H737.647V18.394H747.855V23.962H737.647V36.084H749.363V42H731.731ZM756.2 42V48.38H751.096V36.78H754.112C754.46 36.0453 754.789 35.214 755.098 34.286C755.408 33.3193 755.678 32.314 755.91 31.27C756.142 30.226 756.355 29.1627 756.548 28.08C756.742 26.9587 756.896 25.876 757.012 24.832C757.09 24.02 757.148 23.1113 757.186 22.106C757.264 21.1007 757.322 20.076 757.36 19.032C757.399 17.9493 757.418 16.886 757.418 15.842C757.457 14.7593 757.476 13.7347 757.476 12.768V0.703999H774.47V36.78H777.834V48.38H772.73V42H756.2ZM763.044 5.924V12.71C763.044 13.2513 763.025 14.044 762.986 15.088C762.948 16.0933 762.89 17.1953 762.812 18.394C762.735 19.5927 762.658 20.8107 762.58 22.048C762.503 23.2467 762.406 24.31 762.29 25.238C762.213 26.0113 762.078 26.9007 761.884 27.906C761.73 28.8727 761.536 29.878 761.304 30.922C761.072 31.966 760.821 33.01 760.55 34.054C760.28 35.0593 759.97 35.968 759.622 36.78H768.554V5.924H763.044ZM799.631 30.226V32.778C799.631 34.054 799.379 35.272 798.877 36.432C798.413 37.5533 797.755 38.5587 796.905 39.448C796.054 40.3373 795.049 41.0527 793.889 41.594C792.767 42.0967 791.549 42.348 790.235 42.348C789.113 42.348 787.973 42.1933 786.813 41.884C785.653 41.5747 784.609 41.0333 783.681 40.26C782.753 39.4867 781.979 38.5007 781.361 37.302C780.781 36.0647 780.491 34.4987 780.491 32.604V9.868C780.491 8.51466 780.723 7.258 781.187 6.098C781.651 4.938 782.308 3.93266 783.159 3.082C784.009 2.23133 785.015 1.574 786.175 1.11C787.373 0.60733 788.688 0.355997 790.119 0.355997C792.903 0.355997 795.165 1.26466 796.905 3.082C797.755 3.97133 798.413 5.03467 798.877 6.272C799.379 7.47066 799.631 8.78533 799.631 10.216V12.536H793.715V10.564C793.715 9.404 793.386 8.39866 792.729 7.548C792.071 6.69733 791.182 6.272 790.061 6.272C788.591 6.272 787.605 6.736 787.103 7.664C786.639 8.55333 786.407 9.694 786.407 11.086V32.198C786.407 33.3967 786.658 34.402 787.161 35.214C787.702 36.026 788.649 36.432 790.003 36.432C790.389 36.432 790.795 36.374 791.221 36.258C791.685 36.1033 792.11 35.8713 792.497 35.562C792.845 35.2527 793.135 34.8273 793.367 34.286C793.599 33.7447 793.715 33.068 793.715 32.256V30.226H799.631ZM807.777 42V6.272H800.933V0.703999H820.537V6.272H813.693V42H807.777ZM823.149 42V0.703999H831.791C833.686 0.703999 835.291 0.993999 836.605 1.574C837.959 2.154 839.061 2.92733 839.911 3.894C840.762 4.86067 841.361 5.982 841.709 7.258C842.096 8.49533 842.289 9.79067 842.289 11.144V12.652C842.289 13.7733 842.193 14.7207 841.999 15.494C841.845 16.2673 841.593 16.944 841.245 17.524C840.588 18.6067 839.583 19.5347 838.229 20.308C839.621 20.9653 840.646 21.932 841.303 23.208C841.961 24.484 842.289 26.224 842.289 28.428V30.748C842.289 34.3827 841.4 37.1667 839.621 39.1C837.881 41.0333 835.078 42 831.211 42H823.149ZM829.065 22.86V36.084H831.617C832.816 36.084 833.744 35.91 834.401 35.562C835.097 35.214 835.619 34.7307 835.967 34.112C836.315 33.4933 836.528 32.7587 836.605 31.908C836.683 31.0573 836.721 30.1293 836.721 29.124C836.721 28.08 836.663 27.1713 836.547 26.398C836.431 25.6247 836.199 24.9673 835.851 24.426C835.465 23.8847 834.943 23.498 834.285 23.266C833.628 22.9953 832.758 22.86 831.675 22.86H829.065ZM829.065 6.272V17.64H831.733C833.705 17.64 835.02 17.1567 835.677 16.19C836.373 15.1847 836.721 13.7347 836.721 11.84C836.721 9.984 836.335 8.592 835.561 7.664C834.827 6.736 833.473 6.272 831.501 6.272H829.065ZM847.497 10.448C847.497 8.78533 847.787 7.316 848.367 6.04C848.947 4.764 849.72 3.70066 850.687 2.85C851.615 2.038 852.659 1.41933 853.819 0.993999C855.017 0.568664 856.216 0.355997 857.415 0.355997C858.613 0.355997 859.793 0.568664 860.953 0.993999C862.151 1.41933 863.234 2.038 864.201 2.85C865.129 3.70066 865.883 4.764 866.463 6.04C867.043 7.316 867.333 8.78533 867.333 10.448V32.256C867.333 33.996 867.043 35.4847 866.463 36.722C865.883 37.9593 865.129 38.984 864.201 39.796C863.234 40.6467 862.151 41.2847 860.953 41.71C859.793 42.1353 858.613 42.348 857.415 42.348C856.216 42.348 855.017 42.1353 853.819 41.71C852.659 41.2847 851.615 40.6467 850.687 39.796C849.72 38.984 848.947 37.9593 848.367 36.722C847.787 35.4847 847.497 33.996 847.497 32.256V10.448ZM853.413 32.256C853.413 33.6867 853.799 34.75 854.573 35.446C855.385 36.1033 856.332 36.432 857.415 36.432C858.497 36.432 859.425 36.1033 860.199 35.446C861.011 34.75 861.417 33.6867 861.417 32.256V10.448C861.417 9.01733 861.011 7.97333 860.199 7.316C859.425 6.62 858.497 6.272 857.415 6.272C856.332 6.272 855.385 6.62 854.573 7.316C853.799 7.97333 853.413 9.01733 853.413 10.448V32.256ZM872.54 42V0.703999H878.224L885.822 22.57H885.938L893.478 0.703999H899.22V42H893.304V16.886H893.188L887.33 34.634H884.372L878.572 16.886H878.456V42H872.54Z" fill="#999999"/>
</svg>
