<svg width="78" height="78" viewBox="0 0 78 78" fill="none" xmlns="http://www.w3.org/2000/svg">
<path d="M39 9.75C43.4054 9.75 47.5834 10.7239 51.3303 12.4682C50.8113 13.4187 50.3422 14.4039 49.9506 15.4117C46.6224 13.864 42.9122 13 39 13C24.6405 13 13 24.6405 13 39C13 53.3595 24.6405 65 39 65C53.3595 65 65 53.3595 65 39C65 36.5138 64.651 34.1089 63.9993 31.832C65.0567 31.454 66.0411 30.9255 66.9259 30.2731C67.7864 33.0293 68.25 35.9604 68.25 39C68.25 55.1543 55.1543 68.25 39 68.25C22.8457 68.25 9.75 55.1543 9.75 39C9.75 22.8457 22.8457 9.75 39 9.75Z" fill="#729154"/>
<path d="M66.625 21.125C66.625 24.7148 63.7148 27.625 60.125 27.625C56.5352 27.625 53.625 24.7148 53.625 21.125C53.625 15.4375 60.125 9.75 60.125 9.75C60.125 9.75 66.625 15.4375 66.625 21.125Z" fill="#729154"/>
<path d="M26.9644 53.625C27.3289 52.6815 27.7548 51.7865 28.2355 50.9493L25.4553 48.5662C25.1173 48.6852 24.7536 48.75 24.375 48.75C22.58 48.75 21.125 47.295 21.125 45.5C21.125 43.705 22.58 42.25 24.375 42.25C26.17 42.25 27.625 43.705 27.625 45.5C27.625 45.7044 27.6061 45.9045 27.5701 46.0983L30.1178 48.2822C32.4924 45.5377 35.5994 43.875 39 43.875C44.2494 43.875 48.7996 47.8372 51.0356 53.625C51.6651 55.2545 50.3532 56.875 48.6063 56.875H39.7036L31.2483 49.5527L29.1208 52.0096L34.7389 56.875H29.3935C27.6466 56.875 26.3349 55.2545 26.9644 53.625Z" fill="#729154"/>
<path d="M23.8803 35.3562C22.7703 34.6453 21.957 33.4956 22.1505 32.2968C22.1892 32.0568 22.3335 31.8467 22.5436 31.7243C22.7536 31.6018 23.0075 31.58 23.2354 31.6645C26.1901 32.7616 29.4856 32.0812 32.4039 29.3109C32.6051 29.1198 32.8898 29.0447 33.1591 29.1117C33.4283 29.1785 33.645 29.3782 33.7334 29.6411C34.1099 30.7604 33.7725 32.2708 32.953 33.5114C32.1048 34.7954 30.6657 35.9188 28.6411 36.2176C26.6937 36.5051 25.0401 36.099 23.8803 35.3562Z" fill="#729154"/>
<path d="M53.0441 35.3562C54.1539 34.6453 54.9672 33.4956 54.7737 32.2968C54.735 32.0568 54.5907 31.8467 54.3808 31.7243C54.1707 31.6018 53.9168 31.58 53.6889 31.6645C50.7341 32.7616 47.4388 32.0812 44.5204 29.3109C44.3191 29.1198 44.0344 29.0447 43.7651 29.1117C43.4959 29.1785 43.2794 29.3782 43.1909 29.6411C42.8144 30.7604 43.1517 32.2708 43.9714 33.5114C44.8196 34.7954 46.2585 35.9188 48.2831 36.2176C50.2305 36.5051 51.8841 36.099 53.0441 35.3562Z" fill="#729154"/>
</svg>
