<svg width="78" height="78" viewBox="0 0 78 78" fill="none" xmlns="http://www.w3.org/2000/svg">
<path d="M24.0619 37.7533C22.9518 37.0426 22.1385 35.8929 22.332 34.6941C22.3709 34.4541 22.515 34.244 22.7251 34.1216C22.9352 33.9991 23.1891 33.9772 23.4171 34.0618C26.3716 35.1589 29.6671 34.4783 32.5855 31.7082C32.7866 31.5171 33.0715 31.442 33.3408 31.5088C33.61 31.5757 33.8265 31.7755 33.9149 32.0384C34.2914 33.1577 33.954 34.668 33.1346 35.9086C32.2863 37.1927 30.8474 38.3161 28.8226 38.6149C26.8752 38.9024 25.2216 38.4963 24.0619 37.7533Z" fill="#729154"/>
<path d="M53.2256 37.7533C54.3356 37.0426 55.1488 35.8929 54.9554 34.6941C54.9165 34.4541 54.7724 34.244 54.5623 34.1216C54.3522 33.9991 54.0984 33.9772 53.8704 34.0618C50.9156 35.1589 47.6203 34.4783 44.702 31.7082C44.5008 31.5171 44.2159 31.442 43.9467 31.5088C43.6774 31.5757 43.4609 31.7755 43.3724 32.0384C42.9959 33.1577 43.3332 34.668 44.1529 35.9086C45.0011 37.1927 46.4401 38.3161 48.4646 38.6149C50.4122 38.9024 52.0656 38.4963 53.2256 37.7533Z" fill="#729154"/>
<path d="M27.5683 52.2863C27.7262 51.7085 27.9669 51.115 28.2685 50.6524C30.3297 47.4901 34.3699 45.5 38.8252 45.5C43.1239 45.5 47.0269 47.3505 49.1494 50.3126C49.1535 50.3181 49.1632 50.3311 49.1775 50.3498C49.2598 50.458 49.4899 50.7609 49.6298 51.005C49.8961 51.4691 50.0905 52.0401 50.2093 52.5858C50.3292 53.136 50.3992 53.7838 50.3323 54.4122C50.2707 54.99 50.056 55.8738 49.2921 56.4728C48.4427 57.1389 47.4242 57.0773 46.6016 56.7884C42.7109 55.5175 40.8663 54.9702 39.0481 54.9599C37.2361 54.9497 35.3485 55.4747 31.3885 56.792L31.3757 56.7962L31.3627 56.8002C30.4528 57.0861 29.3776 57.1509 28.4837 56.4962C27.6268 55.8686 27.398 54.9097 27.3484 54.2584C27.2961 53.5699 27.4092 52.8678 27.5683 52.2863Z" fill="#729154"/>
<path fill-rule="evenodd" clip-rule="evenodd" d="M68.25 39C68.25 55.1543 55.1543 68.25 39 68.25C22.8457 68.25 9.75 55.1543 9.75 39C9.75 22.8457 22.8457 9.75 39 9.75C55.1543 9.75 68.25 22.8457 68.25 39ZM65 39C65 53.3595 53.3595 65 39 65C24.6405 65 13 53.3595 13 39C13 24.6405 24.6405 13 39 13C53.3595 13 65 24.6405 65 39Z" fill="#729154"/>
</svg>
