<svg width="78" height="78" viewBox="0 0 78 78" fill="none" xmlns="http://www.w3.org/2000/svg">
<path fill-rule="evenodd" clip-rule="evenodd" d="M39 65C53.3595 65 65 53.3595 65 39C65 24.6405 53.3595 13 39 13C24.6405 13 13 24.6405 13 39C13 53.3595 24.6405 65 39 65ZM39 68.25C55.1543 68.25 68.25 55.1543 68.25 39C68.25 22.8457 55.1543 9.75 39 9.75C22.8457 9.75 9.75 22.8457 9.75 39C9.75 55.1543 22.8457 68.25 39 68.25Z" fill="#729154"/>
<path fill-rule="evenodd" clip-rule="evenodd" d="M34.5893 34.5295C34.7643 35.1771 34.8275 35.8872 34.6162 36.4684C34.5332 36.6969 34.3522 36.8763 34.1229 36.9572C33.8936 37.038 33.6401 37.012 33.4321 36.8861C33.0068 36.629 32.585 36.3003 32.1888 35.9803C32.0811 35.8934 31.9755 35.8071 31.871 35.7219C31.578 35.4827 31.2951 35.252 31.0035 35.0337C30.1883 34.4239 29.541 34.1028 28.9811 34.1302C28.3915 34.159 27.6806 34.5703 26.7668 35.2919C26.5094 35.4952 26.233 35.7261 25.9461 35.9662C25.3159 36.493 24.6339 37.0632 23.9848 37.4798C23.7515 37.6297 23.4577 37.6501 23.2057 37.534C22.9538 37.4179 22.7784 37.1812 22.7409 36.9062C22.6598 36.3137 22.7828 35.5724 23.0147 34.8483C23.2529 34.1039 23.6329 33.2948 24.1439 32.5468C25.1514 31.0726 26.7868 29.6837 28.9754 29.7756C31.0892 29.8644 32.6539 31.1032 33.5974 32.4506C34.0707 33.1265 34.4068 33.8541 34.5893 34.5295Z" fill="#729154"/>
<path fill-rule="evenodd" clip-rule="evenodd" d="M43.2734 34.5295C43.0984 35.1771 43.0352 35.8872 43.2464 36.4684C43.3296 36.6969 43.5107 36.8763 43.74 36.9572C43.9692 37.038 44.2226 37.012 44.4307 36.8861C44.8558 36.629 45.2777 36.3003 45.6739 35.9803C45.7816 35.8934 45.8874 35.8071 45.9917 35.7219C46.2849 35.4827 46.5678 35.252 46.8593 35.0337C47.6744 34.4239 48.3218 34.1028 48.8816 34.1302C49.4712 34.159 50.1821 34.5703 51.0958 35.2919C51.3532 35.4952 51.6297 35.7261 51.9166 35.9662C52.5468 36.493 53.229 37.0632 53.8779 37.4798C54.1114 37.6297 54.4052 37.6501 54.657 37.534C54.9089 37.4179 55.0842 37.1812 55.1218 36.9062C55.2029 36.3137 55.08 35.5724 54.8481 34.8483C54.6097 34.1039 54.23 33.2948 53.7188 32.5468C52.7113 31.0726 51.0759 29.6837 48.8873 29.7756C46.7737 29.8644 45.2088 31.1032 44.2653 32.4506C43.792 33.1265 43.4559 33.8541 43.2734 34.5295Z" fill="#729154"/>
<path fill-rule="evenodd" clip-rule="evenodd" d="M39 60.125C32.4381 60.125 26.7504 55.1722 23.9556 47.9375C23.9288 47.8679 23.9021 47.7982 23.8758 47.7284C23.1473 45.7925 24.6997 43.875 26.7681 43.875H51.2319C53.3003 43.875 54.8527 45.7925 54.1242 47.7284C54.0979 47.7982 54.0712 47.8679 54.0444 47.9375C51.2496 55.1722 45.5619 60.125 39 60.125ZM50.8233 47.2412C50.335 48.4255 49.7694 49.5107 49.1411 50.4912H28.859C28.3137 49.6402 27.8156 48.7103 27.3743 47.7053V47.2412H50.8233Z" fill="#729154"/>
<path fill-rule="evenodd" clip-rule="evenodd" d="M50.8175 53.7412C51.1862 53.2629 51.5383 52.7626 51.8729 52.2418C52.6167 51.0835 53.2729 49.8235 53.8278 48.4799C53.9017 48.3005 53.974 48.1198 54.0444 47.9375C54.0712 47.8679 54.0979 47.7982 54.1242 47.7284C54.7466 46.0744 53.7041 44.4338 52.0973 43.9912C51.8235 43.9156 51.5331 43.875 51.2319 43.875H26.7681C26.4669 43.875 26.1765 43.9156 25.9027 43.9912C25.1469 44.1994 24.5159 44.6727 24.1243 45.2878C23.6836 45.9802 23.5461 46.8523 23.8758 47.7284C23.9021 47.7982 23.9288 47.8679 23.9556 47.9375C24.0107 48.0802 24.0669 48.222 24.1243 48.3629C24.2133 48.5813 24.3048 48.7976 24.3991 49.0116C24.9033 50.1569 25.4823 51.2375 26.1271 52.2418C26.4617 52.7626 26.8138 53.2629 27.1825 53.7412C30.2281 57.6901 34.3991 60.125 39 60.125C43.6009 60.125 47.7719 57.6901 50.8175 53.7412ZM50.8233 47.2412C50.393 48.2846 49.9028 49.2512 49.3626 50.1369C49.2897 50.2564 49.2159 50.3745 49.1411 50.4912H28.859C28.3137 49.6402 27.8156 48.7103 27.3743 47.7053V47.2412H50.8233Z" fill="#729154"/>
</svg>
