<svg width="70" height="70" viewBox="0 0 70 70" fill="none" xmlns="http://www.w3.org/2000/svg">
<path d="M67.5463 47.9097V47.9095C71.8109 37.127 70.4602 24.9503 63.9332 15.3365C50.0492 -5.11465 19.9479 -5.10903 6.06866 15.3345C-0.459499 24.9503 -1.81129 37.1276 2.45309 47.9097C14.1322 77.4325 55.9225 77.2943 67.5463 47.9097ZM54.2351 34.1355L47.4737 40.7327L49.0698 50.0484C49.6249 53.2887 46.2152 55.7084 43.357 54.2034L34.9997 49.8053L26.6422 54.2036C23.7599 55.7206 20.3785 53.2639 20.9294 50.0487L22.5255 40.733L15.764 34.1358C13.4322 31.86 14.7215 27.8821 17.946 27.4133L27.2899 26.054L31.4684 17.5783C32.9096 14.6547 37.0877 14.6531 38.5299 17.5783L42.7084 26.054L52.0523 27.4133C55.2757 27.8817 56.5684 31.8586 54.2351 34.1355Z" fill="#729154"/>
</svg>
