<svg width="88" height="87" viewBox="0 0 88 87" fill="none" xmlns="http://www.w3.org/2000/svg">
<path d="M26.5599 23.6576H30.4338V19.7663H34.3237V15.8912H30.4338V12H26.5599V15.8912H22.67V19.7663H26.5599V23.6576Z" fill="#729154"/>
<path d="M18.78 31.4562H22.6538V35.3313H18.78V31.4562Z" fill="#729154"/>
<path d="M14.89 23.6737H18.7638V27.5488H14.89V23.6737Z" fill="#729154"/>
<path d="M60.5851 74C69.0581 74 76.0408 67.622 77 59.4038H44.1703C45.1294 67.622 52.1121 74 60.5851 74Z" fill="#729154"/>
<path d="M44.1704 55.5287H77C76.0408 47.3105 69.0581 40.9325 60.5851 40.9325C52.1122 40.9325 45.1296 47.3105 44.1704 55.5287Z" fill="#729154"/>
<path d="M41.744 49.6259L26.8678 34.7449L15.841 45.7752C9.38632 52.232 9.38632 62.7006 15.841 69.1574C22.2957 75.6142 32.7609 75.6142 39.2156 69.1574L42.1511 66.221C40.8898 63.5678 40.1829 60.5998 40.1829 57.4662C40.1829 54.688 40.7388 52.0399 41.744 49.6259Z" fill="#729154"/>
<path d="M60.5851 37.0574C63.1265 37.0574 65.5586 37.5236 67.8027 38.3729C69.9257 32.5244 68.6437 25.7178 63.9551 21.0278C57.5004 14.571 47.0352 14.571 40.5805 21.0278L29.607 32.0049L43.6616 46.064C47.3273 40.6305 53.539 37.0574 60.5851 37.0574Z" fill="#729154"/>
</svg>
