<svg width="88" height="87" viewBox="0 0 88 87" fill="none" xmlns="http://www.w3.org/2000/svg">
<path d="M9.03069 59.7999H59.5641C60.0174 59.7999 60.4554 59.6195 60.8029 59.2907C61.2882 58.8282 72.3601 47.9918 73.0352 24.6H18.7633C18.0907 45.8335 7.89408 55.8138 7.78811 55.9134C7.16689 56.5106 6.93833 57.4861 7.21781 58.3541C7.49535 59.2198 8.21868 59.7999 9.03069 59.7999Z" fill="#729154"/>
<path d="M71.1661 11.4H61.4977V9.20002C61.4977 7.96803 60.6469 7.00003 59.564 7.00003C58.4812 7.00003 57.6304 7.96803 57.6304 9.20002V11.4H47.8331V9.20002C47.8331 7.96803 46.9822 7.00003 45.8994 7.00003C44.8165 7.00003 43.9657 7.96803 43.9657 9.20002V11.4H34.2973V9.20002C34.2973 7.96803 33.4465 7.00003 32.3636 7.00003C31.2808 7.00003 30.43 7.96803 30.43 9.20002V11.4H20.7616C19.6787 11.4 18.8279 12.368 18.8279 13.6V20.2H73.0998V13.6C73.0998 12.368 72.249 11.4 71.1661 11.4Z" fill="#729154"/>
<path d="M63.2861 62.6638C62.2361 63.6585 60.9181 64.2 59.5642 64.2H18.828V70.8C18.828 72.016 19.6929 73 20.7617 73H71.1662C72.235 73 73.0999 72.016 73.0999 70.8V46.1387C69.3718 56.5448 64.1694 61.8227 63.2861 62.6638Z" fill="#729154"/>
</svg>
