<svg width="78" height="78" viewBox="0 0 78 78" fill="none" xmlns="http://www.w3.org/2000/svg">
<path fill-rule="evenodd" clip-rule="evenodd" d="M65.4413 51.1891L65.5852 51.2148C65.5925 51.1992 65.5996 51.1836 65.6068 51.168L65.4413 51.1891ZM39 65C42.0581 65 44.9928 64.472 47.7181 63.5022L51.1202 65.6285C47.4274 67.312 43.3233 68.25 39 68.25C22.8457 68.25 9.75 55.1543 9.75 39C9.75 22.8457 22.8457 9.75 39 9.75C55.1543 9.75 68.25 22.8457 68.25 39C68.25 39.6754 68.2271 40.3455 68.1821 41.0095L64.8879 41.4307C64.9621 40.6304 65 39.8197 65 39C65 24.6405 53.3595 13 39 13C24.6405 13 13 24.6405 13 39C13 53.3595 24.6405 65 39 65Z" fill="#729154"/>
<path fill-rule="evenodd" clip-rule="evenodd" d="M28.0168 29.8169C28.5517 29.1934 29.4679 29.0673 30.1514 29.523L35.0264 32.773C35.4785 33.0744 35.75 33.5817 35.75 34.1251C35.75 34.6685 35.4785 35.1758 35.0264 35.4771L30.1514 38.7273C29.458 39.1894 28.5275 39.0523 27.997 38.4098C27.4664 37.7672 27.5078 36.8275 28.093 36.234C29.2697 35.0408 29.4336 34.4797 29.4315 34.1865C29.4291 33.8585 29.2224 33.2535 28.0506 31.9715C27.4963 31.3651 27.4818 30.4404 28.0168 29.8169Z" fill="#729154"/>
<path fill-rule="evenodd" clip-rule="evenodd" d="M56.4832 29.8169C55.9483 29.1934 55.0321 29.0673 54.3486 29.523L49.4736 32.773C49.0215 33.0744 48.75 33.5817 48.75 34.1251C48.75 34.6685 49.0215 35.1758 49.4736 35.4771L54.3486 38.7273C55.042 39.1894 55.9725 39.0523 56.503 38.4098C57.0336 37.7672 56.9922 36.8275 56.407 36.234C55.2303 35.0408 55.0664 34.4797 55.0685 34.1865C55.0709 33.8585 55.2776 33.2535 56.4494 31.9715C57.0037 31.3651 57.0182 30.4404 56.4832 29.8169Z" fill="#729154"/>
<path d="M52 50.375C52 55.7598 47.6348 60.125 42.25 60.125C36.8652 60.125 32.5 55.7598 32.5 50.375C32.5 44.9902 36.8652 40.625 42.25 40.625C47.6348 40.625 52 44.9902 52 50.375Z" fill="#729154"/>
<path fill-rule="evenodd" clip-rule="evenodd" d="M42.25 56.875C45.8398 56.875 48.75 53.9648 48.75 50.375C48.75 46.7852 45.8398 43.875 42.25 43.875C38.6602 43.875 35.75 46.7852 35.75 50.375C35.75 53.9648 38.6602 56.875 42.25 56.875ZM42.25 60.125C47.6348 60.125 52 55.7598 52 50.375C52 44.9902 47.6348 40.625 42.25 40.625C36.8652 40.625 32.5 44.9902 32.5 50.375C32.5 55.7598 36.8652 60.125 42.25 60.125Z" fill="#729154"/>
<path fill-rule="evenodd" clip-rule="evenodd" d="M68.2325 49.6025C68.2136 50.507 67.4788 51.1871 66.5909 51.1218L64.0726 50.936C63.1847 50.8705 62.4801 50.0844 62.4988 49.18C62.5177 48.2756 63.2525 47.5955 64.1404 47.6608L66.6586 47.8466C67.5465 47.9121 68.2511 48.6982 68.2325 49.6025Z" fill="#729154"/>
<path fill-rule="evenodd" clip-rule="evenodd" d="M60.5218 49.0343C60.5031 49.9388 59.7682 50.6188 58.8803 50.5533L57.0161 50.4159C56.1283 50.3505 55.4237 49.5642 55.4424 48.6599C55.4611 47.7554 56.1961 47.0753 57.084 47.1408L58.9482 47.2781C59.8359 47.3436 60.5405 48.1298 60.5218 49.0343Z" fill="#729154"/>
<path fill-rule="evenodd" clip-rule="evenodd" d="M57.8013 61.8832C58.4318 61.2784 59.4498 61.3357 60.0753 62.0114L63.0971 65.276C63.7224 65.9515 63.7184 66.9896 63.0879 67.5944C62.4574 68.1992 61.4393 68.1417 60.8138 67.4662L57.792 64.2016C57.1667 63.5261 57.1708 62.488 57.8013 61.8832Z" fill="#729154"/>
<path fill-rule="evenodd" clip-rule="evenodd" d="M52.7196 56.3939C53.3501 55.7891 54.3681 55.8465 54.9936 56.5222L56.4452 58.0903C57.0705 58.766 57.0664 59.8038 56.4359 60.4087C55.8054 61.0135 54.7872 60.9561 54.1619 60.2805L52.7103 58.7123C52.085 58.0367 52.0891 56.9988 52.7196 56.3939Z" fill="#729154"/>
<path fill-rule="evenodd" clip-rule="evenodd" d="M64.6953 57.4774C65.0162 56.6498 65.9477 56.2793 66.7756 56.6498L67.0574 56.7759C67.8853 57.1464 68.2965 58.1177 67.9755 58.9453C67.6546 59.7729 66.7231 60.1434 65.895 59.7729L65.6134 59.647C64.7853 59.2765 64.3744 58.3052 64.6953 57.4774Z" fill="#729154"/>
<path fill-rule="evenodd" clip-rule="evenodd" d="M54.7263 53.0167C55.0472 52.1891 55.9786 51.8186 56.8067 52.1891L62.1231 54.568C62.9512 54.9385 63.3622 55.9097 63.0412 56.7375C62.7203 57.5651 61.7888 57.9356 60.9609 57.5651L55.6444 55.1863C54.8164 54.8158 54.4053 53.8444 54.7263 53.0167Z" fill="#729154"/>
</svg>
