<svg width="78" height="78" viewBox="0 0 78 78" fill="none" xmlns="http://www.w3.org/2000/svg">
<path d="M56.4964 58.2324C51.8775 62.4369 45.7381 65.0001 39 65.0001C33.8556 65.0001 29.0602 63.506 25.024 60.9281C24.5328 61.9173 23.873 62.8029 23.0838 63.5447C27.6643 66.5211 33.1303 68.2501 39 68.2501C47.223 68.2501 54.6533 64.8569 59.9675 59.3943C58.7147 59.255 57.5395 58.8489 56.4964 58.2324Z" fill="#729154"/>
<path d="M67.9487 43.2138C68.1473 41.8379 68.25 40.431 68.25 39C68.25 22.8457 55.1543 9.75 39 9.75C22.8457 9.75 9.75 22.8457 9.75 39C9.75 42.0821 10.2267 45.053 11.1104 47.8428C11.8968 46.5733 12.7524 45.4113 13.5632 44.4078C13.1941 42.6634 13 40.8543 13 39C13 24.6405 24.6405 13 39 13C53.2321 13 64.7933 24.435 64.9972 38.6186C66.0254 39.9555 67.0826 41.5202 67.9487 43.2138Z" fill="#729154"/>
<path d="M22.332 33.0691C22.1385 34.2679 22.9518 35.4176 24.0619 36.1283C25.2216 36.8713 26.8752 37.2774 28.8226 36.9899C30.8474 36.6911 32.2863 35.5677 33.1346 34.2836C33.954 33.043 34.2914 31.5327 33.9149 30.4134C33.8265 30.1505 33.61 29.9507 33.3408 29.8838C33.0715 29.817 32.7866 29.8921 32.5855 30.0832C29.6671 32.8533 26.3716 33.5339 23.4171 32.4368C23.1891 32.3522 22.9352 32.3741 22.7251 32.4966C22.515 32.619 22.3709 32.8291 22.332 33.0691Z" fill="#729154"/>
<path d="M54.9554 33.0691C55.1488 34.2679 54.3356 35.4176 53.2256 36.1283C52.0656 36.8713 50.4122 37.2774 48.4646 36.9899C46.4401 36.6911 45.0011 35.5677 44.1529 34.2836C43.3332 33.043 42.9959 31.5327 43.3724 30.4134C43.4609 30.1505 43.6774 29.9507 43.9467 29.8838C44.2159 29.817 44.5008 29.8921 44.702 30.0832C47.6203 32.8533 50.9156 33.5339 53.8704 32.4368C54.0984 32.3522 54.3522 32.3741 54.5623 32.4966C54.7724 32.619 54.9165 32.8291 54.9554 33.0691Z" fill="#729154"/>
<path d="M66.625 49.9319C66.625 52.8691 64.0786 55.25 60.9375 55.25C57.7964 55.25 55.25 52.8691 55.25 49.9319C55.25 45.2784 60.9375 40.625 60.9375 40.625C60.9375 40.625 66.625 45.2784 66.625 49.9319Z" fill="#729154"/>
<path d="M17.0625 61.75C20.2036 61.75 22.75 59.369 22.75 56.4319C22.75 51.7783 17.0625 47.125 17.0625 47.125C17.0625 47.125 11.375 51.7783 11.375 56.4319C11.375 59.369 13.9214 61.75 17.0625 61.75Z" fill="#729154"/>
<path d="M51.0356 53.625C48.7996 47.8372 44.2494 43.875 39 43.875C33.7504 43.875 29.2003 47.8372 26.9644 53.625C26.3349 55.2545 27.6466 56.875 29.3935 56.875H48.6064C50.3532 56.875 51.6651 55.2545 51.0356 53.625Z" fill="#729154"/>
</svg>
