<svg width="78" height="78" viewBox="0 0 78 78" fill="none" xmlns="http://www.w3.org/2000/svg">
<path d="M49.5625 42.25C51.8061 42.25 53.625 39.3398 53.625 35.75C53.625 32.1602 51.8061 29.25 49.5625 29.25C47.3189 29.25 45.5 32.1602 45.5 35.75C45.5 39.3398 47.3189 42.25 49.5625 42.25Z" fill="#729154"/>
<path d="M23.9571 36.319C23.7637 37.5178 24.5768 38.6675 25.6869 39.3784C26.8468 40.1212 28.5002 40.5275 30.4478 40.2398C32.4724 39.941 33.9113 38.8176 34.7596 37.5336C35.5792 36.293 35.9166 34.7826 35.5401 33.6633C35.4515 33.4004 35.235 33.2007 34.9658 33.1339C34.6965 33.0669 34.4117 33.1422 34.2105 33.3331C31.2921 36.1034 27.9968 36.7838 25.0421 35.6869C24.8141 35.6022 24.5603 35.6242 24.3501 35.7465C24.14 35.8689 23.9959 36.079 23.9571 36.319Z" fill="#729154"/>
<path fill-rule="evenodd" clip-rule="evenodd" d="M26.9623 50.9941L26.9653 50.9921L27.0106 50.965C27.0522 50.9403 27.1198 50.901 27.2111 50.8509C27.3941 50.7508 27.6695 50.6086 28.0191 50.4538C28.7237 50.1416 29.698 49.7918 30.8004 49.6172C32.9563 49.2758 35.5457 49.5917 37.7538 52.2304C40.8824 55.9692 44.7455 56.437 47.7081 55.9679C49.1647 55.7371 50.4161 55.2831 51.2974 54.8928C51.7408 54.6963 52.0983 54.5125 52.3502 54.3746C52.4763 54.3055 52.5764 54.2477 52.6482 54.2049L52.691 54.1794L52.7345 54.1529L52.7612 54.1364L52.7704 54.1307L52.774 54.1284L52.7768 54.1266C53.3561 53.7584 53.6416 53.0658 53.4901 52.3963C53.3385 51.7268 52.7826 51.2247 52.1011 51.142L39.8097 49.6489C36.7638 46.3648 33.1182 45.9597 30.292 46.4072C28.8353 46.638 27.5839 47.092 26.7027 47.4823C26.2592 47.6789 25.9017 47.8627 25.6498 48.0005C25.5237 48.0696 25.4236 48.1276 25.3518 48.1702C25.3472 48.1728 25.343 48.1754 25.3386 48.178C25.3087 48.1957 25.2844 48.2106 25.2655 48.2222L25.2389 48.2387L25.2296 48.2446L25.226 48.2467L25.2233 48.2485C24.4658 48.73 24.2421 49.7342 24.7234 50.4916C25.2039 51.2476 26.2052 51.472 26.9623 50.9941ZM51.9051 52.7551L52.7768 54.1266C52.7768 54.1266 52.7768 54.1266 51.9051 52.7551Z" fill="#729154"/>
<path fill-rule="evenodd" clip-rule="evenodd" d="M68.25 39C68.25 55.1543 55.1543 68.25 39 68.25C22.8457 68.25 9.75 55.1543 9.75 39C9.75 22.8457 22.8457 9.75 39 9.75C55.1543 9.75 68.25 22.8457 68.25 39ZM65 39C65 53.3595 53.3595 65 39 65C24.6405 65 13 53.3595 13 39C13 24.6405 24.6405 13 39 13C53.3595 13 65 24.6405 65 39Z" fill="#729154"/>
</svg>
