<svg width="78" height="78" viewBox="0 0 78 78" fill="none" xmlns="http://www.w3.org/2000/svg">
<path d="M34.5893 35.6116C34.7643 36.2592 34.8275 36.9693 34.6162 37.5506C34.5332 37.7792 34.3522 37.9584 34.1229 38.0394C33.8936 38.1201 33.6401 38.0941 33.4321 37.9684C33.0068 37.7111 32.585 37.3824 32.1888 37.0626C32.0817 36.976 31.9769 36.8903 31.8732 36.8058L31.8719 36.8047C31.5788 36.5657 31.2951 36.3341 31.0035 36.116C30.1883 35.506 29.541 35.1849 28.9811 35.2124C28.3915 35.2413 27.6806 35.6524 26.7668 36.3741C26.5094 36.5774 26.233 36.8083 25.9461 37.0483C25.3159 37.5751 24.6339 38.1453 23.9848 38.562C23.7515 38.712 23.4577 38.7323 23.2057 38.6161C22.9538 38.5001 22.7784 38.2633 22.7409 37.9885C22.6598 37.396 22.7828 36.6547 23.0147 35.9304C23.2529 35.1862 23.6329 34.3769 24.1439 33.629C25.1514 32.1549 26.7868 30.7659 28.9754 30.8578C31.0892 30.9466 32.6539 32.1853 33.5974 33.5328C34.0707 34.2086 34.4068 34.9363 34.5893 35.6116Z" fill="#EF8A52"/>
<path d="M43.2734 35.6116C43.0984 36.2592 43.0352 36.9693 43.2465 37.5506C43.3297 37.7792 43.5107 37.9584 43.74 38.0394C43.9693 38.1201 44.2226 38.0941 44.4308 37.9684C44.8559 37.7111 45.2777 37.3824 45.6739 37.0626C45.781 36.976 45.886 36.8905 45.9896 36.8058L45.9917 36.804C46.2849 36.565 46.5678 36.3341 46.8593 36.116C47.6744 35.506 48.3218 35.1849 48.8816 35.2124C49.4712 35.2413 50.1821 35.6524 51.0959 36.3741C51.3533 36.5774 51.6297 36.8083 51.9167 37.0483C52.5468 37.5751 53.229 38.1453 53.8779 38.562C54.1114 38.712 54.4052 38.7323 54.6571 38.6161C54.9089 38.5001 55.0843 38.2633 55.1218 37.9885C55.2029 37.396 55.08 36.6547 54.8482 35.9304C54.6098 35.1862 54.23 34.3769 53.7188 33.629C52.7113 32.1549 51.0759 30.7659 48.8873 30.8578C46.7737 30.9466 45.2088 32.1853 44.2653 33.5328C43.792 34.2086 43.4559 34.9363 43.2734 35.6116Z" fill="#EF8A52"/>
<path fill-rule="evenodd" clip-rule="evenodd" d="M49.3486 51.1778C49.6795 50.7727 49.9419 50.2553 50.1145 49.7514C50.2863 49.2501 50.4219 48.6087 50.3595 47.9528C50.295 47.2757 49.9863 46.3993 49.0933 45.8774C48.2675 45.3946 47.3117 45.4409 46.466 45.653L46.4443 45.6588C42.5509 46.6923 40.6447 47.12 38.7998 47.1117C36.9505 47.1035 35.0862 46.6582 31.2622 45.6613C30.5235 45.4536 29.6447 45.4031 28.8629 45.873C28.0551 46.3584 27.7555 47.153 27.6646 47.7483C27.5743 48.3411 27.6503 48.9306 27.7727 49.4077C27.896 49.8882 28.0995 50.3845 28.3762 50.7963C28.565 51.0776 28.8452 51.3683 28.9466 51.4734C28.9627 51.4901 28.9742 51.5022 28.9802 51.5087C31.1309 53.8623 34.9313 55.2501 39.0214 55.2501C43.2841 55.2501 47.2568 53.7393 49.3486 51.1778ZM38.7852 50.3617C41.0696 50.372 43.3311 49.8442 46.9669 48.8825C46.9508 48.9176 46.9345 48.9509 46.9181 48.9818C46.8734 49.0663 46.8403 49.1113 46.8314 49.122C45.5538 50.6864 42.6696 52.0001 39.0214 52.0001C35.5412 52.0001 32.7361 50.8011 31.3795 49.3164C31.3295 49.2616 31.2801 49.2098 31.2422 49.1698L31.2395 49.1669C31.2093 49.1352 31.1857 49.1102 31.1646 49.0876L31.1408 49.0619C31.0897 49.006 31.0747 48.9852 31.0739 48.9839C31.071 48.9794 31.0674 48.974 31.0638 48.9678C34.4212 49.8393 36.5799 50.3518 38.7852 50.3617Z" fill="#EF8A52"/>
<path fill-rule="evenodd" clip-rule="evenodd" d="M68.25 39C68.25 55.1543 55.1543 68.25 39 68.25C22.8457 68.25 9.75 55.1543 9.75 39C9.75 22.8457 22.8457 9.75 39 9.75C55.1543 9.75 68.25 22.8457 68.25 39ZM65 39C65 53.3595 53.3595 65 39 65C24.6405 65 13 53.3595 13 39C13 24.6405 24.6405 13 39 13C53.3595 13 65 24.6405 65 39Z" fill="#EF8A52"/>
</svg>
