<svg width="88" height="87" viewBox="0 0 88 87" fill="none" xmlns="http://www.w3.org/2000/svg">
<path fill-rule="evenodd" clip-rule="evenodd" d="M24.2493 32.3211C24.2493 19.9966 34.2776 10 46.6341 10H47.6151C59.9805 10 70 19.9896 70 32.3235C70 37.2093 68.8693 40.8601 66.3875 45.8091C66.3238 45.9362 66.1558 46.2672 65.9607 46.6514L65.9596 46.6535C65.6525 47.2585 65.2788 47.9947 65.1398 48.2745C64.7008 49.1584 64.3773 49.8588 64.1092 50.5207C63.4866 52.0577 63.1862 53.3542 63.1862 54.6468C63.1862 57.3309 63.8568 60.0892 64.9804 62.75C65.3772 63.6895 65.8019 64.5471 66.2246 65.3022C66.4724 65.7448 66.6586 66.0466 66.7529 66.1875C67.4582 67.2426 66.9764 68.6776 65.7761 69.0964L46.3077 75.8904C45.2822 76.2484 44.1612 75.6999 43.8177 74.6722L40.3677 64.3525H33.9836C28.6042 64.3525 24.2494 60.0115 24.2494 54.6418V49.7938H22.3005C19.8492 49.7938 18.3589 47.6033 19.2701 45.3319L24.2494 32.9199L24.2493 32.3211ZM56.7898 29.0959C56.1477 24.2712 52.0263 20.554 47.0368 20.554C42.0472 20.554 37.9259 24.2739 37.283 29.0959H56.7898ZM47.0368 40.2693C42.0465 40.2693 37.9252 36.5515 37.283 31.7268H56.7898C56.1477 36.5474 52.027 40.2693 47.0368 40.2693Z" fill="#729154"/>
</svg>
