<svg width="88" height="87" viewBox="0 0 88 87" fill="none" xmlns="http://www.w3.org/2000/svg">
<path fill-rule="evenodd" clip-rule="evenodd" d="M77 43C77 61.2254 62.2254 76 44 76C25.7746 76 11 61.2254 11 43C11 24.7746 25.7746 10 44 10C62.2254 10 77 24.7746 77 43ZM46.6672 42.4413H52.2731V36.2311H56.8385V42.4413H62.4444V46.6373H56.8385V52.8475H52.2731V46.6373H46.6672V42.4413ZM39.4715 40.3265C38.4644 39.9236 37.2336 39.7222 35.7789 39.7222C35.3314 39.7222 34.8502 39.767 34.3355 39.8565C33.8208 39.946 33.3173 40.1027 32.8249 40.3265C33.1606 39.4089 33.6306 38.6368 34.2348 38.0102C34.839 37.3612 35.544 36.8353 36.3496 36.4325C37.1776 36.0297 38.084 35.7388 39.0687 35.5597C40.0757 35.3583 41.1499 35.2464 42.2912 35.224C42.2465 34.5079 42.2017 33.8254 42.157 33.1764C42.1122 32.505 42.0674 31.8224 42.0227 31.1287C39.74 31.1511 37.6812 31.4756 35.8461 32.1022C34.0334 32.7064 32.478 33.6016 31.1801 34.7877C29.9045 35.9514 28.9198 37.3948 28.226 39.118C27.5323 40.8412 27.1854 42.8217 27.1854 45.0596C27.1854 48.1703 27.9127 50.6096 29.3674 52.3776C30.822 54.1455 32.948 55.0295 35.7454 55.0295C37.1329 55.0295 38.3302 54.7833 39.3372 54.291C40.3666 53.7986 41.2059 53.172 41.8548 52.4111C42.5262 51.6502 43.0186 50.7998 43.3319 49.8599C43.6675 48.92 43.8354 48.0025 43.8354 47.1073C43.8354 46.1002 43.6899 45.1491 43.399 44.254C43.1081 43.3588 42.6381 42.5756 41.9891 41.9042C41.3401 41.2328 40.5009 40.7069 39.4715 40.3265ZM35.1411 43.6162C34.6488 43.6162 34.1229 43.6609 33.5634 43.7504C33.004 43.84 32.5676 43.9631 32.2543 44.1197C32.2543 44.2092 32.2431 44.3435 32.2207 44.5225V44.9925C32.2207 45.7981 32.2766 46.559 32.3885 47.2751C32.5004 47.9913 32.6906 48.6179 32.9592 49.155C33.2277 49.6921 33.5858 50.1173 34.0334 50.4306C34.481 50.7215 35.0404 50.867 35.7118 50.867C36.2713 50.867 36.7412 50.7551 37.1217 50.5313C37.5245 50.2851 37.849 49.983 38.0952 49.6249C38.3637 49.2669 38.5539 48.8752 38.6658 48.45C38.8001 48.0025 38.8673 47.5773 38.8673 47.1744C38.8673 46.0331 38.5763 45.1603 37.9945 44.5561C37.435 43.9295 36.4839 43.6162 35.1411 43.6162Z" fill="#729154"/>
</svg>
