<svg width="70" height="80" viewBox="0 0 70 80" fill="none" xmlns="http://www.w3.org/2000/svg">
<path d="M44.3697 4.86206C45.1592 4.86206 45.9378 4.90723 46.7054 4.99268V2.34314C46.7054 1.04919 45.6592 0 44.3697 0H25.6839C24.3937 0 23.3481 1.04919 23.3481 2.34314V4.99268C24.9509 4.81445 23.9187 4.86206 44.3697 4.86206Z" fill="#729154"/>
<path d="M53.8227 30.6274H60.7198V25.9509C60.7198 16.9061 53.3854 9.54834 44.3697 9.54834H25.6839C16.6676 9.54834 9.3338 16.9061 9.3338 25.9509V44.6838C14.8301 44.8023 19.9157 46.6284 24.089 49.6576C29.3134 38.4271 40.6757 30.6274 53.8227 30.6274Z" fill="#729154"/>
<path d="M67.6643 35.3142H53.8227C42.0632 35.3142 31.9666 42.5933 27.7763 52.8954C31.5135 56.8407 34.0335 61.931 34.7999 67.5322L51.6123 50.537C52.521 49.6184 53.9997 49.6129 54.9157 50.5248C55.8312 51.436 55.8367 52.9198 54.9279 53.8384L35.0469 73.9354C35.0469 77.8112 35.1533 78.5692 34.6436 79.9999H41.8813C57.3871 79.9999 70 67.3455 70 51.7913V37.6573C70 36.3622 68.955 35.3142 67.6643 35.3142Z" fill="#729154"/>
<path d="M8.76141 49.3635H2.33573C1.0456 49.3635 0 50.4121 0 51.7067V58.1929C0 70.2144 9.6957 79.9952 21.6134 79.9952H27.078L13.5314 66.3319C12.6214 65.4139 12.6257 63.9308 13.5399 63.0177C14.4547 62.1052 15.9334 62.1095 16.8434 63.0269L30.3748 76.6749V71.1659C30.3748 59.1438 20.6791 49.3635 8.76141 49.3635Z" fill="#729154"/>
</svg>
